<svg width="275" height="48" viewBox="0 0 275 48" fill="none" xmlns="http://www.w3.org/2000/svg">
<path d="M62.1859 4.24578C62.3461 4.24578 62.4582 4.34301 62.5223 4.53747C62.5864 4.69953 62.5703 4.84537 62.4742 4.97502C60.8403 6.59554 59.3826 8.41053 58.101 10.42C56.8516 12.397 55.7943 14.4389 54.9293 16.5456C54.0642 18.6523 53.4075 20.7427 52.9589 22.817C52.5424 24.8589 52.3342 26.7387 52.3342 28.4564C52.3342 30.2066 52.5424 31.5841 52.9589 32.5888C53.3754 33.5611 53.9521 34.0473 54.689 34.0473C55.3297 34.0473 55.9385 33.8042 56.5152 33.318C57.1239 32.8319 57.7166 32.1512 58.2933 31.2762C58.3894 31.2113 58.4855 31.2113 58.5816 31.2762C58.7098 31.341 58.7578 31.4544 58.7258 31.6165C58.3734 32.1675 57.9729 32.7184 57.5244 33.2694C57.0758 33.788 56.5792 34.2741 56.0346 34.7279C55.522 35.1492 54.9933 35.5057 54.4487 35.7974C53.904 36.0567 53.3754 36.1864 52.8628 36.1864C51.6774 36.1864 50.7964 35.6354 50.2197 34.5334C49.643 33.4315 49.3546 31.9568 49.3546 30.1094C49.3546 28.5861 49.5309 26.9007 49.8833 25.0533C50.2357 23.1735 50.7483 21.2613 51.4211 19.3167C52.1259 17.372 52.9589 15.476 53.9201 13.6286C54.9132 11.7488 56.0346 10.0635 57.2841 8.57258C55.3618 10.0311 53.3754 11.7812 51.325 13.8231C49.2745 15.865 47.2882 18.0527 45.3659 20.3862C43.4757 22.6874 41.6975 25.0695 40.0316 27.5327C38.3976 29.9959 37.036 32.3943 35.9467 34.7279C35.8826 34.8575 35.7545 35.0196 35.5623 35.214C35.37 35.3761 35.1458 35.5381 34.8895 35.7002C34.6331 35.8298 34.3768 35.9433 34.1205 36.0405C33.8642 36.1377 33.64 36.1864 33.4477 36.1864C33.1914 36.1864 33.0953 36.0729 33.1594 35.846C33.7681 30.8224 34.6332 26.3498 35.7545 22.4281C36.9079 18.5064 38.2535 14.8926 39.7913 11.5868C37.2282 15.476 34.7132 18.9602 32.2463 22.0392C29.8114 25.0858 27.3445 27.6624 24.8455 29.7691C22.3786 31.8433 19.8636 33.4315 17.3006 34.5334C14.7375 35.6354 12.0944 36.1864 9.37114 36.1864C6.35956 36.1864 4.0368 35.4247 2.40286 33.9014C0.800952 32.3781 0 30.3687 0 27.8731C0 26.2201 0.464552 24.7454 1.39366 23.449C2.32276 22.1202 3.60428 21.1479 5.23822 20.5321C5.36638 20.4672 5.44647 20.4997 5.47851 20.6293C5.54259 20.7589 5.54259 20.8724 5.47851 20.9696C4.48533 21.6178 3.78049 22.3633 3.364 23.2059C2.97954 24.0486 2.78731 25.1506 2.78731 26.5118C2.78731 27.5814 2.96352 28.6023 3.31594 29.5746C3.66836 30.5145 4.18097 31.3572 4.85377 32.1026C5.52657 32.8157 6.37558 33.3828 7.40079 33.8042C8.42601 34.2255 9.61142 34.4362 10.957 34.4362C13.7443 34.4362 16.4035 33.788 18.9345 32.4916C21.4975 31.1951 23.9805 29.4288 26.3833 27.1924C28.8182 24.9237 31.1891 22.266 33.4958 19.2194C35.8346 16.1729 38.1573 12.8994 40.4641 9.39905C38.2214 8.6212 35.8666 7.97299 33.3997 7.45442C30.9648 6.90344 28.61 6.62795 26.3353 6.62795C23.7402 6.62795 21.7378 7.37339 20.3282 8.86428C18.9185 10.3228 18.0535 12.2998 17.7331 14.7954C17.669 14.9575 17.5729 15.0223 17.4447 14.9899C17.3486 14.9575 17.2845 14.8602 17.2525 14.6982C17.6049 11.4895 18.7583 9.04254 20.7126 7.35719C22.6669 5.67184 25.214 4.82917 28.3537 4.82917C29.6352 4.82917 30.9968 4.9264 32.4385 5.12086C33.8803 5.28292 35.2899 5.50979 36.6676 5.80149C38.0772 6.09318 39.4068 6.41728 40.6563 6.7738C41.9378 7.09791 43.0592 7.42201 44.0203 7.74612C44.1485 7.71371 44.3086 7.66509 44.5009 7.60027C44.629 7.63268 44.7091 7.71371 44.7412 7.84335C44.7732 7.97299 44.7572 8.08643 44.6931 8.18366C44.2446 8.44294 43.8601 8.79946 43.5397 9.25321C43.2514 9.67454 42.931 10.2093 42.5786 10.8575C40.9767 14.131 39.6952 17.5503 38.734 21.1155C37.8049 24.6482 37.036 28.2296 36.4273 31.8596C37.901 29.1695 39.6311 26.4794 41.6175 23.7893C43.6359 21.0668 45.7824 18.4902 48.0571 16.0594C50.3318 13.6286 52.6706 11.3923 55.0734 9.35044C57.5083 7.30857 59.8791 5.60702 62.1859 4.24578Z" fill="white" fill-opacity="0.1"/>
<path d="M73.5919 33.1236C73.656 33.0587 73.7361 33.0587 73.8322 33.1236C73.9283 33.1884 73.9604 33.2856 73.9283 33.4153C73.3517 34.2579 72.7109 34.9386 72.0061 35.4571C71.3012 35.9433 70.6284 36.1864 69.9877 36.1864C69.2508 36.1864 68.7702 35.6678 68.5459 34.6307C68.3537 33.5611 68.4658 32.2971 68.8823 30.8386C68.0173 32.2323 67.0722 33.4315 66.047 34.4362C65.0538 35.4085 63.9965 35.9919 62.8752 36.1864C62.1063 36.1864 61.5136 35.8298 61.0971 35.1168C60.6806 34.4038 60.4724 33.5773 60.4724 32.6374C60.4724 31.5679 60.7287 30.5145 61.2413 29.4774C61.7539 28.4078 62.4267 27.4517 63.2597 26.609C64.1247 25.7664 65.0698 25.0858 66.095 24.5672C67.1523 24.0162 68.2095 23.7407 69.2668 23.7407C70.3881 23.7407 71.2692 24.0162 71.9099 24.5672C72.2303 24.3403 72.6308 24.1458 73.1114 23.9838C73.624 23.8217 74.0725 23.7407 74.457 23.7407C74.5851 23.7407 74.6492 23.8217 74.6492 23.9838C73.9123 24.8913 73.2716 25.896 72.7269 26.998C72.2143 28.0675 71.8138 29.1047 71.5255 30.1094C71.2371 31.0817 71.0609 31.9568 70.9969 32.7346C70.9328 33.5125 70.9969 34.0473 71.1891 34.339C71.3493 34.5334 71.6216 34.5982 72.0061 34.5334C72.3905 34.4362 72.9191 33.9662 73.5919 33.1236ZM64.365 34.3876C64.7494 34.3876 65.214 34.1445 65.7586 33.6583C66.3353 33.1722 66.928 32.524 67.5367 31.7137C68.1455 30.9034 68.7382 29.9959 69.3149 28.9912C69.9236 27.9865 70.4522 26.9656 70.9007 25.9284C70.7726 25.5071 70.4682 25.1668 69.9877 24.9075C69.5391 24.6482 69.0105 24.5186 68.4018 24.5186C67.6649 24.5186 66.9761 24.713 66.3353 25.102C65.6946 25.4585 65.1339 25.977 64.6533 26.6577C64.2048 27.3059 63.8363 28.0999 63.548 29.0398C63.2917 29.9473 63.1636 30.9521 63.1636 32.054C63.1636 32.767 63.2757 33.3342 63.4999 33.7556C63.7563 34.1769 64.0446 34.3876 64.365 34.3876Z" fill="white" fill-opacity="0.1"/>
<path d="M81.2402 25.1506C81.2402 25.6367 81.1921 26.1877 81.096 26.8035C80.9999 27.4193 80.8717 28.0513 80.7115 28.6995C81.3523 27.1438 82.0571 25.9284 82.826 25.0533C83.5949 24.1783 84.4279 23.7407 85.325 23.7407C85.8056 23.7407 86.174 23.8542 86.4303 24.081C86.6866 24.3079 86.8148 24.5996 86.8148 24.9561C86.8148 25.2802 86.6866 25.7016 86.4303 26.2201C86.2061 26.7387 86.0138 27.0952 85.8536 27.2897C85.7896 27.3221 85.7255 27.3221 85.6614 27.2897C85.5973 27.2248 85.5653 27.16 85.5653 27.0952C85.5653 26.8683 85.4692 26.6739 85.277 26.5118C85.1168 26.3498 84.8605 26.2687 84.508 26.2687C83.3867 26.2687 82.3615 27.0466 81.4324 28.6023C80.5353 30.1256 79.7023 32.3295 78.9334 35.214C78.9014 35.3761 78.7892 35.5219 78.597 35.6516C78.4048 35.7488 78.1805 35.846 77.9242 35.9433C77.6999 36.0081 77.4597 36.0729 77.2034 36.1377C76.9471 36.1702 76.7228 36.1864 76.5306 36.1864C76.1781 36.1864 76.082 35.9919 76.2422 35.603C76.5306 34.9223 76.8029 34.1931 77.0592 33.4153C77.3475 32.605 77.6038 31.7947 77.8281 30.9845C78.0524 30.1742 78.2446 29.3964 78.4048 28.6509C78.565 27.8731 78.6931 27.16 78.7892 26.5118C78.8533 26.0257 78.8693 25.6529 78.8373 25.3937C78.8373 25.1344 78.7091 25.0047 78.4528 25.0047C78.1325 25.0047 77.7961 25.1506 77.4436 25.4423C77.1233 25.7015 76.8189 26.0419 76.5306 26.4632C76.4024 26.5604 76.2743 26.5766 76.1461 26.5118C76.05 26.4146 76.034 26.3011 76.098 26.1715C76.2903 25.9122 76.5145 25.6529 76.7708 25.3937C77.0592 25.102 77.3635 24.8427 77.6839 24.6158C78.0363 24.3565 78.3888 24.1458 78.7412 23.9838C79.1256 23.8217 79.5101 23.7407 79.8946 23.7407C80.4072 23.7407 80.7596 23.8704 80.9518 24.1296C81.144 24.3565 81.2402 24.6968 81.2402 25.1506Z" fill="white" fill-opacity="0.1"/>
<path d="M97.239 25.1506C97.3672 24.8265 97.7196 24.5186 98.2963 24.2269C98.873 23.9028 99.3856 23.7407 99.8341 23.7407C100.122 23.7407 100.235 23.8542 100.171 24.081C99.4657 26.0905 98.7608 28.0513 98.056 29.9635C97.3832 31.8433 96.6784 33.788 95.9415 35.7974C94.3396 39.9784 92.3372 43.0574 89.9344 45.0344C87.5635 47.0115 85.0325 48 82.3413 48C80.4831 48 79.0254 47.5625 77.9681 46.6874C76.9109 45.8123 76.3823 44.7589 76.3823 43.5273C76.3823 42.8143 76.6225 42.1175 77.1031 41.4369C77.5837 40.7562 78.2405 40.2701 79.0735 39.9784C79.2016 39.946 79.2977 39.9784 79.3618 40.0756C79.4259 40.1729 79.4259 40.2701 79.3618 40.3673C78.8492 40.9183 78.5929 41.6151 78.5929 42.4578C78.5929 43.819 79.0094 44.921 79.8424 45.7637C80.6754 46.6063 81.8768 47.0277 83.4467 47.0277C84.568 47.0277 85.5932 46.8494 86.5223 46.4929C87.4514 46.1364 88.3164 45.5044 89.1174 44.5969C89.9504 43.6894 90.7513 42.474 91.5202 40.9507C92.2892 39.4274 93.0741 37.5152 93.875 35.214C94.2595 34.1445 94.5959 33.1884 94.8842 32.3457C95.2046 31.503 95.525 30.5793 95.8454 29.5746C95.2367 30.5469 94.6119 31.4382 93.9712 32.2485C93.3304 33.0587 92.6736 33.7556 92.0008 34.339C91.3601 34.9223 90.7353 35.3761 90.1266 35.7002C89.5179 36.0243 88.9572 36.1864 88.4446 36.1864C87.8038 36.1864 87.3393 35.9919 87.0509 35.603C86.7626 35.214 86.6184 34.6793 86.6184 33.9986C86.6184 32.8643 86.8427 31.5679 87.2912 30.1094C87.7718 28.6185 88.4125 27.1924 89.2135 25.8312C88.8611 26.0581 88.5407 26.2687 88.2524 26.4632C87.964 26.6577 87.6917 26.8845 87.4354 27.1438C87.3393 27.2086 87.2432 27.1924 87.147 27.0952C87.083 26.9656 87.083 26.8521 87.147 26.7549C87.3713 26.528 87.6757 26.2849 88.0601 26.0257C88.4446 25.734 88.8611 25.4585 89.3096 25.1992C89.7581 24.9399 90.2067 24.6806 90.6552 24.4213C91.1358 24.1621 91.6003 23.9352 92.0489 23.7407C92.3693 23.7407 92.4974 23.8866 92.4333 24.1783C91.9207 24.8265 91.4562 25.5557 91.0397 26.366C90.6552 27.1438 90.3188 27.9379 90.0305 28.7481C89.7421 29.526 89.5179 30.3038 89.3577 31.0817C89.2295 31.8596 89.1654 32.5564 89.1654 33.1722C89.1654 34.0797 89.4538 34.5334 90.0305 34.5334C90.5431 34.5334 91.1518 34.2093 91.8566 33.5611C92.5615 32.9129 93.2503 32.1188 93.9231 31.1789C94.6279 30.2066 95.2687 29.1857 95.8454 28.1161C96.4541 27.0142 96.9187 26.0257 97.239 25.1506Z" fill="white" fill-opacity="0.1"/>
<path d="M135.39 7.30857C136.96 8.18366 138.402 9.237 139.715 10.4686C141.061 11.6678 142.214 12.9966 143.175 14.4551C144.136 15.9136 144.873 17.4369 145.386 19.025C145.931 20.6131 146.203 22.2012 146.203 23.7893C146.203 25.5719 145.866 27.2248 145.194 28.7481C144.521 30.2714 143.576 31.5841 142.358 32.686C141.141 33.788 139.667 34.6469 137.937 35.2627C136.239 35.8785 134.349 36.1864 132.266 36.1864C131.049 36.1864 129.911 36.1215 128.854 35.9919C127.797 35.8298 126.788 35.6354 125.827 35.4085C124.898 35.1492 123.984 34.8737 123.087 34.582C122.222 34.2579 121.357 33.95 120.492 33.6583C119.275 34.5334 117.913 35.1816 116.407 35.603C114.934 35.9919 113.284 36.1864 111.458 36.1864C110.432 36.1864 109.695 36.0729 109.247 35.846C108.83 35.5868 108.622 35.2465 108.622 34.8251C108.622 34.4038 108.766 33.95 109.055 33.4639C109.375 32.9453 109.808 32.4754 110.352 32.054C110.929 31.6327 111.586 31.2924 112.323 31.0331C113.091 30.7414 113.941 30.5955 114.87 30.5955C116.119 30.5955 117.256 30.709 118.282 30.9359C119.339 31.1627 120.38 31.4544 121.405 31.8109C122.527 30.5145 123.584 28.7643 124.577 26.5604C125.57 24.3565 126.612 21.5368 127.701 18.1013C128.342 16.0918 129.03 14.3092 129.767 12.7535C130.536 11.1978 131.417 9.8528 132.41 8.71843C131.129 8.07022 129.767 7.58406 128.326 7.25996C126.916 6.90344 125.442 6.72519 123.904 6.72519C122.495 6.72519 121.261 6.93585 120.204 7.35719C119.179 7.77853 118.314 8.34571 117.609 9.05874C116.904 9.77177 116.343 10.5982 115.927 11.5381C115.51 12.4781 115.222 13.4666 115.062 14.5037C114.998 14.5685 114.918 14.5847 114.822 14.5523C114.725 14.5199 114.677 14.4389 114.677 14.3092C114.806 12.9804 115.158 11.7488 115.735 10.6144C116.311 9.44767 117.08 8.44294 118.041 7.60027C119.035 6.7576 120.204 6.09318 121.55 5.60702C122.895 5.12086 124.417 4.87778 126.115 4.87778C127.589 4.87778 129.014 5.05604 130.392 5.41256C131.77 5.73666 133.099 6.20662 134.381 6.82242C135.214 6.1418 136.111 5.57461 137.072 5.12086C138.065 4.66711 139.17 4.3106 140.388 4.05132C140.484 4.05132 140.532 4.11614 140.532 4.24578C140.532 4.34301 140.484 4.42404 140.388 4.48886C138.498 5.00743 136.832 5.94733 135.39 7.30857ZM113.091 35.3113C114.437 35.3113 115.639 35.1816 116.696 34.9223C117.785 34.6307 118.794 34.1283 119.723 33.4153C118.666 33.0912 117.577 32.8157 116.455 32.5888C115.334 32.3619 114.101 32.2485 112.755 32.2485C112.018 32.2485 111.474 32.3781 111.121 32.6374C110.801 32.8967 110.641 33.2532 110.641 33.707C110.641 34.1931 110.833 34.582 111.217 34.8737C111.634 35.1654 112.259 35.3113 113.091 35.3113ZM134.621 34.582C137.697 34.582 139.955 33.7718 141.397 32.1512C142.839 30.4983 143.56 28.2134 143.56 25.2964C143.56 23.7731 143.319 22.2498 142.839 20.7265C142.358 19.2032 141.685 17.7448 140.82 16.3511C139.955 14.9575 138.914 13.661 137.697 12.4618C136.479 11.2627 135.118 10.2255 133.612 9.35044C132.17 11.3275 130.937 13.9041 129.911 17.0803C128.79 20.6779 127.621 23.7083 126.403 26.1715C125.218 28.6023 123.856 30.5955 122.318 32.1512C123.119 32.4429 123.936 32.7346 124.769 33.0263C125.634 33.2856 126.564 33.5449 127.557 33.8042C128.55 34.0311 129.623 34.2255 130.777 34.3876C131.93 34.5172 133.211 34.582 134.621 34.582Z" fill="white" fill-opacity="0.1"/>
<path d="M155.064 23.7407C156.185 23.7407 157.018 24.081 157.563 24.7616C158.107 25.4423 158.38 26.2363 158.38 27.1438C158.38 28.4078 158.123 29.5908 157.611 30.6928C157.13 31.7623 156.521 32.7184 155.785 33.5611C155.08 34.3714 154.311 35.0196 153.478 35.5057C152.645 35.9595 151.892 36.1864 151.219 36.1864C150.13 36.1864 149.297 35.8623 148.72 35.214C148.176 34.5334 147.903 33.6745 147.903 32.6374C147.903 31.6975 148.095 30.709 148.48 29.6718C148.896 28.6347 149.425 27.6786 150.066 26.8035C150.739 25.9284 151.508 25.1992 152.373 24.6158C153.238 24.0324 154.135 23.7407 155.064 23.7407ZM152.421 34.6793C153.414 34.6793 154.247 34.1607 154.92 33.1236C155.624 32.054 155.977 30.5955 155.977 28.7481C155.977 27.7758 155.785 26.9656 155.4 26.3174C155.016 25.6691 154.455 25.345 153.718 25.345C152.693 25.345 151.86 25.8474 151.219 26.8521C150.578 27.8569 150.258 29.3315 150.258 31.2762C150.258 32.4105 150.45 33.2694 150.835 33.8528C151.251 34.4038 151.78 34.6793 152.421 34.6793Z" fill="white" fill-opacity="0.1"/>
<path d="M168.367 28.1161C168.174 28.181 168.078 28.0999 168.078 27.8731C168.302 27.1924 168.254 26.5928 167.934 26.0743C167.646 25.5557 167.101 25.2964 166.3 25.2964C165.275 25.2964 164.442 25.9446 163.801 27.2411C163.192 28.5375 162.888 30.2228 162.888 32.2971C162.888 33.8204 163.481 34.582 164.666 34.582C165.211 34.582 165.804 34.3876 166.444 33.9986C167.117 33.5773 167.726 33.0425 168.27 32.3943C168.399 32.3295 168.511 32.3457 168.607 32.4429C168.703 32.5402 168.719 32.6536 168.655 32.7833C167.854 33.8204 166.957 34.6469 165.964 35.2627C164.971 35.8785 163.913 36.1864 162.792 36.1864C162.087 36.1864 161.494 35.9433 161.014 35.4571C160.533 34.9386 160.293 34.2255 160.293 33.318C160.293 32.1837 160.517 31.0493 160.966 29.9149C161.446 28.7481 162.055 27.711 162.792 26.8035C163.529 25.896 164.33 25.1668 165.195 24.6158C166.06 24.0324 166.909 23.7407 167.742 23.7407C168.479 23.7407 169.055 23.9514 169.472 24.3727C169.888 24.7941 170.097 25.264 170.097 25.7826C170.097 25.977 170.033 26.1877 169.904 26.4146C169.808 26.6415 169.664 26.8683 169.472 27.0952C169.312 27.3221 169.119 27.5327 168.895 27.7272C168.703 27.9217 168.527 28.0513 168.367 28.1161Z" fill="white" fill-opacity="0.1"/>
<path d="M181.223 26.1715C181.223 28.0189 178.804 29.2829 173.966 29.9635C173.934 30.2876 173.902 30.6117 173.87 30.9359C173.87 31.26 173.87 31.6003 173.87 31.9568C173.87 32.7995 174.062 33.4477 174.447 33.9014C174.831 34.3552 175.44 34.582 176.273 34.582C176.881 34.582 177.506 34.4038 178.147 34.0473C178.788 33.6907 179.3 33.237 179.685 32.686C179.813 32.6212 179.909 32.6536 179.973 32.7833C180.037 32.8805 180.053 32.9939 180.021 33.1236C179.38 33.9662 178.563 34.6955 177.57 35.3113C176.609 35.8947 175.568 36.1864 174.447 36.1864C173.325 36.1864 172.508 35.9109 171.996 35.3599C171.515 34.7765 171.275 33.9662 171.275 32.9291C171.275 31.9244 171.483 30.8872 171.899 29.8177C172.316 28.7157 172.845 27.711 173.485 26.8035C174.158 25.896 174.911 25.1668 175.744 24.6158C176.609 24.0324 177.474 23.7407 178.339 23.7407C179.204 23.7407 179.893 24 180.406 24.5186C180.95 25.0047 181.223 25.5557 181.223 26.1715ZM177.042 25.0047C176.305 25.0047 175.664 25.3612 175.119 26.0743C174.607 26.7549 174.254 27.8244 174.062 29.2829C175.6 29.1209 176.737 28.8292 177.474 28.4078C178.211 27.9541 178.579 27.4031 178.579 26.7549C178.579 26.2687 178.435 25.8636 178.147 25.5395C177.859 25.183 177.49 25.0047 177.042 25.0047Z" fill="white" fill-opacity="0.1"/>
<path d="M188.686 23.7407C189.391 23.7407 189.952 23.8379 190.368 24.0324C190.817 24.2269 191.041 24.47 191.041 24.7616C191.041 25.1182 190.945 25.5233 190.753 25.977C190.592 26.4308 190.432 26.8035 190.272 27.0952C190.208 27.16 190.128 27.1762 190.032 27.1438C189.936 27.079 189.888 26.9818 189.888 26.8521C189.984 26.6253 190.032 26.3011 190.032 25.8798C190.032 25.4261 189.904 25.0533 189.647 24.7616C189.423 24.47 189.103 24.3241 188.686 24.3241C188.141 24.3241 187.693 24.5024 187.34 24.8589C187.02 25.183 186.86 25.6529 186.86 26.2687C186.86 26.7873 186.988 27.2897 187.244 27.7758C187.533 28.2296 187.837 28.6995 188.157 29.1857C188.51 29.6394 188.83 30.1418 189.119 30.6928C189.407 31.2113 189.551 31.8109 189.551 32.4916C189.551 33.6583 189.087 34.5658 188.157 35.214C187.228 35.8623 186.011 36.1864 184.505 36.1864C183.416 36.1864 182.551 36.0081 181.91 35.6516C181.301 35.2951 180.997 34.9061 180.997 34.4848C180.997 34.3552 181.045 34.1769 181.141 33.95C181.237 33.7232 181.365 33.4801 181.526 33.2208C181.686 32.9615 181.862 32.7022 182.054 32.4429C182.246 32.1837 182.455 31.973 182.679 31.8109C182.775 31.7461 182.855 31.7623 182.919 31.8596C183.015 31.9568 183.031 32.054 182.967 32.1512C182.775 32.3457 182.631 32.5564 182.535 32.7833C182.439 32.9777 182.391 33.2532 182.391 33.6097C182.391 34.1931 182.583 34.6793 182.967 35.0682C183.352 35.4247 183.848 35.603 184.457 35.603C185.29 35.603 185.931 35.3761 186.379 34.9223C186.86 34.4362 187.1 33.8528 187.1 33.1722C187.1 32.5564 186.956 31.9892 186.668 31.4706C186.411 30.9196 186.123 30.4011 185.803 29.9149C185.482 29.3963 185.178 28.8778 184.89 28.3592C184.633 27.8406 184.505 27.2897 184.505 26.7063C184.505 25.8636 184.858 25.1668 185.562 24.6158C186.267 24.0324 187.308 23.7407 188.686 23.7407Z" fill="white" fill-opacity="0.1"/>
<path d="M239.312 6.53072C239.44 6.62795 239.456 6.79 239.36 7.01688C239.264 7.21134 239.103 7.42201 238.879 7.64889C238.687 7.84335 238.447 8.02161 238.158 8.18366C237.87 8.34571 237.614 8.42674 237.389 8.42674C236.62 8.36192 235.835 8.28089 235.035 8.18366C234.266 8.08643 233.497 7.97299 232.728 7.84335C232.055 8.03781 231.462 8.32951 230.95 8.71843C230.469 9.07495 230.021 9.56111 229.604 10.1769C229.22 10.7927 228.851 11.5706 228.499 12.5105C228.178 13.418 227.842 14.5361 227.49 15.865C227.265 16.6104 227.057 17.3396 226.865 18.0527C226.673 18.7657 226.448 19.4463 226.192 20.0945H231.142C231.302 20.1594 231.35 20.2404 231.286 20.3376C231.254 20.4024 231.11 20.4672 230.854 20.5321C230.021 20.5645 229.204 20.5969 228.403 20.6293C227.602 20.6293 226.801 20.6455 226 20.6779C224.077 26.0257 221.627 29.9473 218.647 32.4429C215.7 34.9386 212.159 36.1864 208.026 36.1864C205.72 36.1864 203.926 35.6354 202.644 34.5334C201.395 33.4315 200.77 31.9082 200.77 29.9635C200.77 28.8292 201.09 27.7758 201.731 26.8035C202.404 25.8312 203.349 25.0695 204.566 24.5186C204.694 24.5186 204.791 24.5834 204.855 24.713C204.919 24.8103 204.919 24.9075 204.855 25.0047C204.278 25.4585 203.845 25.9608 203.557 26.5118C203.301 27.0304 203.173 27.7596 203.173 28.6995C203.173 29.5422 203.317 30.3201 203.605 31.0331C203.894 31.7137 204.342 32.3295 204.951 32.8805C205.559 33.3991 206.344 33.8042 207.306 34.0959C208.267 34.3876 209.42 34.5334 210.766 34.5334C212.303 34.5334 213.649 34.339 214.802 33.95C215.988 33.5611 217.061 32.8643 218.022 31.8596C218.983 30.8224 219.881 29.4126 220.713 27.63C221.546 25.8474 222.396 23.5625 223.261 20.7752C221.627 20.84 220.041 20.9372 218.503 21.0668C216.965 21.1965 215.459 21.3747 213.985 21.6016C213.889 21.5692 213.905 21.5044 214.034 21.4072C214.162 21.2775 214.338 21.1479 214.562 21.0182C214.818 20.8886 215.091 20.7751 215.379 20.6779C215.667 20.5483 215.892 20.4672 216.052 20.4348C218.455 20.3052 220.922 20.208 223.453 20.1431C223.613 19.6246 223.773 19.0898 223.933 18.5388C224.094 17.9878 224.254 17.4207 224.414 16.8373C225.119 14.212 226.016 12.2026 227.105 10.8089C228.194 9.38285 229.684 8.32951 231.574 7.64889C229.844 7.3896 228.178 7.16273 226.576 6.96826C225.007 6.74139 223.501 6.62795 222.059 6.62795C219.656 6.62795 217.67 7.0979 216.1 8.03781C214.53 8.94531 213.377 10.5172 212.64 12.7535C212.544 12.8508 212.448 12.867 212.352 12.8022C212.255 12.7373 212.207 12.6239 212.207 12.4618C212.912 10.1607 214.29 8.3133 216.34 6.91965C218.423 5.52599 220.986 4.82917 224.029 4.82917C225.215 4.82917 226.4 4.89399 227.586 5.02363C228.803 5.15327 230.037 5.31533 231.286 5.50979C232.536 5.67184 233.817 5.8501 235.131 6.04456C236.476 6.23903 237.87 6.40108 239.312 6.53072Z" fill="white" fill-opacity="0.1"/>
<path d="M236.982 21.6502C236.886 21.7475 236.774 21.7475 236.646 21.6502C236.55 21.553 236.47 21.4234 236.406 21.2613C236.342 21.0668 236.31 20.8724 236.31 20.6779C236.31 20.451 236.358 20.2566 236.454 20.0945C236.806 19.6408 237.319 19.0736 237.992 18.393C238.696 17.6799 239.417 17.0803 240.154 16.5942C240.218 16.5618 240.298 16.5942 240.394 16.6914C240.49 16.7562 240.523 16.8211 240.491 16.8859C239.818 17.5017 239.177 18.2471 238.568 19.1222C237.959 19.9649 237.431 20.8076 236.982 21.6502ZM231.84 27.1438C231.744 27.2086 231.664 27.1924 231.6 27.0952C231.536 26.9656 231.52 26.8521 231.552 26.7549C232.737 25.7826 234.387 24.7779 236.502 23.7407C236.758 23.7407 236.886 23.8866 236.886 24.1783C236.47 24.9237 236.053 25.734 235.637 26.609C235.252 27.4841 234.9 28.3592 234.579 29.2343C234.291 30.077 234.051 30.9034 233.859 31.7137C233.666 32.4916 233.57 33.1398 233.57 33.6583C233.57 34.3065 233.795 34.6307 234.243 34.6307C234.595 34.6307 234.932 34.4848 235.252 34.1931C235.605 33.869 236.005 33.4639 236.454 32.9777C236.518 32.9129 236.598 32.9291 236.694 33.0263C236.79 33.0912 236.806 33.2046 236.742 33.3666C236.037 34.2093 235.332 34.8899 234.628 35.4085C233.955 35.9271 233.298 36.1864 232.657 36.1864C231.536 36.1864 230.975 35.6516 230.975 34.582C230.975 33.9986 231.055 33.318 231.215 32.5402C231.408 31.7299 231.648 30.9196 231.936 30.1094C232.257 29.2667 232.593 28.4564 232.946 27.6786C233.33 26.8683 233.714 26.1715 234.099 25.5881C233.746 25.7826 233.346 26.0257 232.897 26.3174C232.481 26.609 232.129 26.8845 231.84 27.1438Z" fill="white" fill-opacity="0.1"/>
<path d="M252.409 32.7833C252.473 32.7184 252.554 32.7346 252.65 32.8319C252.746 32.8967 252.778 32.9939 252.746 33.1236C252.169 33.9338 251.496 34.6469 250.727 35.2627C249.991 35.8785 249.254 36.1864 248.517 36.1864C247.972 36.1864 247.54 36.0081 247.219 35.6516C246.931 35.2951 246.787 34.8251 246.787 34.2417C246.787 33.1074 246.979 31.8758 247.363 30.5469C247.78 29.2181 248.325 27.8731 248.997 26.5118C249.093 26.2849 249.142 26.0419 249.142 25.7826C249.142 25.4585 248.997 25.2964 248.709 25.2964C247.524 25.2964 246.21 26.1229 244.768 27.7758C243.327 29.3964 241.997 31.9892 240.78 35.5544C240.748 35.6516 240.635 35.7488 240.443 35.846C240.283 35.9109 240.091 35.9757 239.867 36.0405C239.642 36.0729 239.418 36.1053 239.194 36.1377C238.969 36.1702 238.793 36.1864 238.665 36.1864C238.505 36.1864 238.377 36.1539 238.281 36.0891C238.217 36.0243 238.217 35.9109 238.281 35.7488C238.825 34.3552 239.37 32.8319 239.915 31.1789C240.491 29.4936 240.988 27.8082 241.404 26.1229C241.5 25.7988 241.516 25.5719 241.452 25.4423C241.388 25.2802 241.276 25.1992 241.116 25.1992C240.764 25.1992 240.427 25.3612 240.107 25.6853C239.786 25.977 239.498 26.3011 239.242 26.6577C239.146 26.7225 239.05 26.7063 238.953 26.609C238.889 26.5118 238.873 26.4146 238.905 26.3174C239.066 26.0905 239.274 25.8312 239.53 25.5395C239.818 25.2478 240.139 24.9723 240.491 24.713C240.844 24.4213 241.212 24.1945 241.597 24.0324C241.981 23.8379 242.365 23.7407 242.75 23.7407C243.295 23.7407 243.647 23.919 243.807 24.2755C243.999 24.5996 244.047 25.0047 243.951 25.4909C243.791 26.2039 243.615 26.8845 243.423 27.5327C243.263 28.1485 243.054 28.8454 242.798 29.6232C243.182 28.9102 243.647 28.2134 244.192 27.5327C244.768 26.8197 245.393 26.1877 246.066 25.6367C246.771 25.0533 247.524 24.5996 248.325 24.2755C249.125 23.919 249.975 23.7407 250.872 23.7407C251.256 23.7407 251.544 23.8379 251.737 24.0324C251.961 24.2269 252.073 24.4537 252.073 24.713C252.073 25.1668 251.961 25.5719 251.737 25.9284C251.064 27.16 250.487 28.4402 250.007 29.7691C249.558 31.0655 249.334 32.2323 249.334 33.2694C249.334 34.1121 249.606 34.5334 250.151 34.5334C250.503 34.5334 250.856 34.3876 251.208 34.0959C251.56 33.8042 251.961 33.3666 252.409 32.7833Z" fill="white" fill-opacity="0.1"/>
<path d="M261.409 23.7407C262.53 23.7407 263.363 24.081 263.908 24.7616C264.452 25.4423 264.725 26.2363 264.725 27.1438C264.725 28.4078 264.468 29.5908 263.956 30.6928C263.475 31.7623 262.867 32.7184 262.13 33.5611C261.425 34.3714 260.656 35.0196 259.823 35.5057C258.99 35.9595 258.237 36.1864 257.564 36.1864C256.475 36.1864 255.642 35.8623 255.065 35.214C254.521 34.5334 254.248 33.6745 254.248 32.6374C254.248 31.6975 254.441 30.709 254.825 29.6718C255.242 28.6347 255.77 27.6786 256.411 26.8035C257.084 25.9284 257.853 25.1992 258.718 24.6158C259.583 24.0324 260.48 23.7407 261.409 23.7407ZM258.766 34.6793C259.759 34.6793 260.592 34.1607 261.265 33.1236C261.97 32.054 262.322 30.5955 262.322 28.7481C262.322 27.7758 262.13 26.9656 261.745 26.3174C261.361 25.6691 260.8 25.345 260.063 25.345C259.038 25.345 258.205 25.8474 257.564 26.8521C256.924 27.8569 256.603 29.3315 256.603 31.2762C256.603 32.4105 256.795 33.2694 257.18 33.8528C257.596 34.4038 258.125 34.6793 258.766 34.6793Z" fill="white" fill-opacity="0.1"/>
<path d="M272.645 23.7407C273.35 23.7407 273.911 23.8379 274.327 24.0324C274.776 24.2269 275 24.47 275 24.7616C275 25.1182 274.904 25.5233 274.712 25.977C274.551 26.4308 274.391 26.8035 274.231 27.0952C274.167 27.16 274.087 27.1762 273.991 27.1438C273.895 27.079 273.847 26.9818 273.847 26.8521C273.943 26.6253 273.991 26.3011 273.991 25.8798C273.991 25.4261 273.863 25.0533 273.606 24.7616C273.382 24.47 273.062 24.3241 272.645 24.3241C272.101 24.3241 271.652 24.5024 271.3 24.8589C270.979 25.183 270.819 25.6529 270.819 26.2687C270.819 26.7873 270.947 27.2897 271.203 27.7758C271.492 28.2296 271.796 28.6995 272.117 29.1857C272.469 29.6394 272.789 30.1418 273.078 30.6928C273.366 31.2113 273.51 31.8109 273.51 32.4916C273.51 33.6583 273.046 34.5658 272.117 35.214C271.187 35.8623 269.97 36.1864 268.464 36.1864C267.375 36.1864 266.51 36.0081 265.869 35.6516C265.26 35.2951 264.956 34.9061 264.956 34.4848C264.956 34.3552 265.004 34.1769 265.1 33.95C265.196 33.7232 265.325 33.4801 265.485 33.2208C265.645 32.9615 265.821 32.7022 266.013 32.4429C266.206 32.1837 266.414 31.973 266.638 31.8109C266.734 31.7461 266.814 31.7623 266.878 31.8596C266.974 31.9568 266.99 32.054 266.926 32.1512C266.734 32.3457 266.59 32.5564 266.494 32.7833C266.398 32.9777 266.35 33.2532 266.35 33.6097C266.35 34.1931 266.542 34.6793 266.926 35.0682C267.311 35.4247 267.807 35.603 268.416 35.603C269.249 35.603 269.89 35.3761 270.338 34.9223C270.819 34.4362 271.059 33.8528 271.059 33.1722C271.059 32.5564 270.915 31.9892 270.627 31.4706C270.37 30.9196 270.082 30.4011 269.762 29.9149C269.441 29.3963 269.137 28.8778 268.849 28.3592C268.592 27.8406 268.464 27.2897 268.464 26.7063C268.464 25.8636 268.817 25.1668 269.522 24.6158C270.226 24.0324 271.268 23.7407 272.645 23.7407Z" fill="white" fill-opacity="0.1"/>
<path d="M62.1859 0.194464C62.3461 0.194464 62.4582 0.291695 62.5223 0.486157C62.5864 0.64821 62.5703 0.794057 62.4742 0.9237C60.8403 2.54423 59.3826 4.35922 58.101 6.36867C56.8516 8.34571 55.7943 10.3876 54.9293 12.4943C54.0642 14.6009 53.4075 16.6914 52.9589 18.7657C52.5424 20.8076 52.3342 22.6874 52.3342 24.4051C52.3342 26.1553 52.5424 27.5327 52.9589 28.5375C53.3754 29.5098 53.9521 29.9959 54.689 29.9959C55.3297 29.9959 55.9385 29.7529 56.5152 29.2667C57.1239 28.7806 57.7166 28.0999 58.2933 27.2248C58.3894 27.16 58.4855 27.16 58.5816 27.2248C58.7098 27.2897 58.7578 27.4031 58.7258 27.5652C58.3734 28.1161 57.9729 28.6671 57.5244 29.2181C57.0758 29.7367 56.5792 30.2228 56.0346 30.6766C55.522 31.0979 54.9933 31.4544 54.4487 31.7461C53.904 32.0054 53.3754 32.135 52.8628 32.135C51.6774 32.135 50.7964 31.5841 50.2197 30.4821C49.643 29.3801 49.3546 27.9055 49.3546 26.0581C49.3546 24.5348 49.5309 22.8494 49.8833 21.002C50.2357 19.1222 50.7483 17.21 51.4211 15.2654C52.1259 13.3207 52.9589 11.4247 53.9201 9.57731C54.9132 7.6975 56.0346 6.01215 57.2841 4.52127C55.3618 5.97974 53.3754 7.72991 51.325 9.77178C49.2745 11.8136 47.2882 14.0013 45.3659 16.3349C43.4757 18.6361 41.6975 21.0182 40.0316 23.4814C38.3976 25.9446 37.036 28.343 35.9467 30.6766C35.8826 30.8062 35.7545 30.9683 35.5623 31.1627C35.37 31.3248 35.1458 31.4868 34.8895 31.6489C34.6331 31.7785 34.3768 31.892 34.1205 31.9892C33.8642 32.0864 33.64 32.135 33.4477 32.135C33.1914 32.135 33.0953 32.0216 33.1594 31.7947C33.7681 26.7711 34.6332 22.2984 35.7545 18.3768C36.9079 14.4551 38.2535 10.8413 39.7913 7.53545C37.2282 11.4247 34.7132 14.9088 32.2463 17.9878C29.8114 21.0344 27.3445 23.6111 24.8455 25.7178C22.3786 27.792 19.8636 29.3801 17.3006 30.4821C14.7375 31.5841 12.0944 32.135 9.37114 32.135C6.35956 32.135 4.0368 31.3734 2.40286 29.8501C0.800952 28.3268 0 26.3174 0 23.8217C0 22.1688 0.464552 20.6941 1.39366 19.3977C2.32276 18.0689 3.60428 17.0966 5.23822 16.4808C5.36638 16.4159 5.44647 16.4483 5.47851 16.578C5.54259 16.7076 5.54259 16.8211 5.47851 16.9183C4.48533 17.5665 3.78049 18.3119 3.364 19.1546C2.97954 19.9973 2.78731 21.0993 2.78731 22.4605C2.78731 23.53 2.96352 24.551 3.31594 25.5233C3.66836 26.4632 4.18097 27.3059 4.85377 28.0513C5.52657 28.7643 6.37558 29.3315 7.40079 29.7529C8.42601 30.1742 9.61142 30.3849 10.957 30.3849C13.7443 30.3849 16.4035 29.7367 18.9345 28.4402C21.4975 27.1438 23.9805 25.3774 26.3833 23.1411C28.8182 20.8724 31.1891 18.2147 33.4958 15.1681C35.8346 12.1215 38.1573 8.84807 40.4641 5.34774C38.2214 4.56988 35.8666 3.92167 33.3997 3.40311C30.9648 2.85213 28.61 2.57664 26.3353 2.57664C23.7402 2.57664 21.7378 3.32208 20.3282 4.81296C18.9185 6.27144 18.0535 8.24848 17.7331 10.7441C17.669 10.9061 17.5729 10.971 17.4447 10.9386C17.3486 10.9061 17.2845 10.8089 17.2525 10.6469C17.6049 7.43822 18.7583 4.99122 20.7126 3.30587C22.6669 1.62052 25.214 0.777851 28.3537 0.777851C29.6352 0.777851 30.9968 0.875083 32.4385 1.06955C33.8803 1.2316 35.2899 1.45847 36.6676 1.75017C38.0772 2.04186 39.4068 2.36597 40.6563 2.72248C41.9378 3.04659 43.0592 3.37069 44.0203 3.6948C44.1485 3.66239 44.3086 3.61377 44.5009 3.54895C44.629 3.58136 44.7091 3.66239 44.7412 3.79203C44.7732 3.92167 44.7572 4.03511 44.6931 4.13234C44.2446 4.39163 43.8601 4.74814 43.5397 5.20189C43.2514 5.62323 42.931 6.158 42.5786 6.80621C40.9767 10.0797 39.6952 13.499 38.734 17.0641C37.8049 20.5969 37.036 24.1783 36.4273 27.8082C37.901 25.1182 39.6311 22.4281 41.6175 19.738C43.6359 17.0155 45.7824 14.4389 48.0571 12.0081C50.3318 9.57731 52.6706 7.34098 55.0734 5.29912C57.5083 3.25726 59.8791 1.55571 62.1859 0.194464Z" fill="#C72373"/>
<path d="M73.5919 29.0722C73.656 29.0074 73.7361 29.0074 73.8322 29.0722C73.9283 29.1371 73.9604 29.2343 73.9283 29.3639C73.3517 30.2066 72.7109 30.8872 72.0061 31.4058C71.3012 31.892 70.6284 32.135 69.9877 32.135C69.2508 32.135 68.7702 31.6165 68.5459 30.5793C68.3537 29.5098 68.4658 28.2458 68.8823 26.7873C68.0173 28.181 67.0722 29.3801 66.047 30.3849C65.0538 31.3572 63.9965 31.9406 62.8752 32.135C62.1063 32.135 61.5136 31.7785 61.0971 31.0655C60.6806 30.3525 60.4724 29.526 60.4724 28.5861C60.4724 27.5165 60.7287 26.4632 61.2413 25.4261C61.7539 24.3565 62.4267 23.4004 63.2597 22.5577C64.1247 21.7151 65.0698 21.0344 66.095 20.5159C67.1523 19.9649 68.2095 19.6894 69.2668 19.6894C70.3881 19.6894 71.2692 19.9649 71.9099 20.5159C72.2303 20.289 72.6308 20.0945 73.1114 19.9325C73.624 19.7704 74.0725 19.6894 74.457 19.6894C74.5851 19.6894 74.6492 19.7704 74.6492 19.9325C73.9123 20.84 73.2716 21.8447 72.7269 22.9467C72.2143 24.0162 71.8138 25.0533 71.5255 26.0581C71.2371 27.0304 71.0609 27.9055 70.9969 28.6833C70.9328 29.4612 70.9969 29.9959 71.1891 30.2876C71.3493 30.4821 71.6216 30.5469 72.0061 30.4821C72.3905 30.3849 72.9191 29.9149 73.5919 29.0722ZM64.365 30.3363C64.7494 30.3363 65.214 30.0932 65.7586 29.607C66.3353 29.1209 66.928 28.4727 67.5367 27.6624C68.1455 26.8521 68.7382 25.9446 69.3149 24.9399C69.9236 23.9352 70.4522 22.9142 70.9007 21.8771C70.7726 21.4558 70.4682 21.1155 69.9877 20.8562C69.5391 20.5969 69.0105 20.4672 68.4018 20.4672C67.6649 20.4672 66.9761 20.6617 66.3353 21.0506C65.6946 21.4072 65.1339 21.9257 64.6533 22.6063C64.2048 23.2546 63.8363 24.0486 63.548 24.9885C63.2917 25.896 63.1636 26.9007 63.1636 28.0027C63.1636 28.7157 63.2757 29.2829 63.4999 29.7043C63.7563 30.1256 64.0446 30.3363 64.365 30.3363Z" fill="#C72373"/>
<path d="M81.2402 21.0993C81.2402 21.5854 81.1921 22.1364 81.096 22.7522C80.9999 23.368 80.8717 24 80.7115 24.6482C81.3523 23.0925 82.0571 21.8771 82.826 21.002C83.5949 20.1269 84.4279 19.6894 85.325 19.6894C85.8056 19.6894 86.174 19.8028 86.4303 20.0297C86.6866 20.2566 86.8148 20.5483 86.8148 20.9048C86.8148 21.2289 86.6866 21.6502 86.4303 22.1688C86.2061 22.6874 86.0138 23.0439 85.8536 23.2384C85.7896 23.2708 85.7255 23.2708 85.6614 23.2384C85.5973 23.1735 85.5653 23.1087 85.5653 23.0439C85.5653 22.817 85.4692 22.6226 85.277 22.4605C85.1168 22.2984 84.8605 22.2174 84.508 22.2174C83.3867 22.2174 82.3615 22.9953 81.4324 24.551C80.5353 26.0743 79.7023 28.2782 78.9334 31.1627C78.9014 31.3248 78.7892 31.4706 78.597 31.6003C78.4048 31.6975 78.1805 31.7947 77.9242 31.892C77.6999 31.9568 77.4597 32.0216 77.2034 32.0864C76.9471 32.1188 76.7228 32.135 76.5306 32.135C76.1781 32.135 76.082 31.9406 76.2422 31.5517C76.5306 30.871 76.8029 30.1418 77.0592 29.3639C77.3475 28.5537 77.6038 27.7434 77.8281 26.9332C78.0524 26.1229 78.2446 25.345 78.4048 24.5996C78.565 23.8217 78.6931 23.1087 78.7892 22.4605C78.8533 21.9743 78.8693 21.6016 78.8373 21.3423C78.8373 21.0831 78.7091 20.9534 78.4528 20.9534C78.1325 20.9534 77.7961 21.0993 77.4436 21.3909C77.1233 21.6502 76.8189 21.9905 76.5306 22.4119C76.4024 22.5091 76.2743 22.5253 76.1461 22.4605C76.05 22.3633 76.034 22.2498 76.098 22.1202C76.2903 21.8609 76.5145 21.6016 76.7708 21.3423C77.0592 21.0506 77.3635 20.7914 77.6839 20.5645C78.0363 20.3052 78.3888 20.0945 78.7412 19.9325C79.1256 19.7704 79.5101 19.6894 79.8946 19.6894C80.4072 19.6894 80.7596 19.819 80.9518 20.0783C81.144 20.3052 81.2402 20.6455 81.2402 21.0993Z" fill="#C72373"/>
<path d="M97.239 21.0993C97.3672 20.7752 97.7196 20.4672 98.2963 20.1756C98.873 19.8514 99.3856 19.6894 99.8341 19.6894C100.122 19.6894 100.235 19.8028 100.171 20.0297C99.4657 22.0392 98.7608 24 98.056 25.9122C97.3832 27.792 96.6784 29.7367 95.9415 31.7461C94.3396 35.9271 92.3372 39.0061 89.9344 40.9831C87.5635 42.9602 85.0325 43.9487 82.3413 43.9487C80.4831 43.9487 79.0254 43.5111 77.9681 42.6361C76.9109 41.761 76.3823 40.7076 76.3823 39.476C76.3823 38.763 76.6225 38.0662 77.1031 37.3855C77.5837 36.7049 78.2405 36.2188 79.0735 35.9271C79.2016 35.8947 79.2977 35.9271 79.3618 36.0243C79.4259 36.1215 79.4259 36.2188 79.3618 36.316C78.8492 36.867 78.5929 37.5638 78.5929 38.4065C78.5929 39.7677 79.0094 40.8697 79.8424 41.7124C80.6754 42.555 81.8768 42.9764 83.4467 42.9764C84.568 42.9764 85.5932 42.7981 86.5223 42.4416C87.4514 42.0851 88.3164 41.4531 89.1174 40.5456C89.9504 39.6381 90.7513 38.4227 91.5202 36.8994C92.2892 35.3761 93.0741 33.4639 93.875 31.1627C94.2595 30.0932 94.5959 29.1371 94.8842 28.2944C95.2046 27.4517 95.525 26.528 95.8454 25.5233C95.2367 26.4956 94.6119 27.3869 93.9712 28.1972C93.3304 29.0074 92.6736 29.7043 92.0008 30.2876C91.3601 30.871 90.7353 31.3248 90.1266 31.6489C89.5179 31.973 88.9572 32.135 88.4446 32.135C87.8038 32.135 87.3393 31.9406 87.0509 31.5517C86.7626 31.1627 86.6184 30.628 86.6184 29.9473C86.6184 28.813 86.8427 27.5165 87.2912 26.0581C87.7718 24.5672 88.4125 23.1411 89.2135 21.7799C88.8611 22.0067 88.5407 22.2174 88.2524 22.4119C87.964 22.6063 87.6917 22.8332 87.4354 23.0925C87.3393 23.1573 87.2432 23.1411 87.147 23.0439C87.083 22.9142 87.083 22.8008 87.147 22.7036C87.3713 22.4767 87.6757 22.2336 88.0601 21.9743C88.4446 21.6826 88.8611 21.4072 89.3096 21.1479C89.7581 20.8886 90.2067 20.6293 90.6552 20.37C91.1358 20.1107 91.6003 19.8839 92.0489 19.6894C92.3693 19.6894 92.4974 19.8352 92.4333 20.1269C91.9207 20.7751 91.4562 21.5044 91.0397 22.3146C90.6552 23.0925 90.3188 23.8866 90.0305 24.6968C89.7421 25.4747 89.5179 26.2525 89.3577 27.0304C89.2295 27.8082 89.1654 28.5051 89.1654 29.1209C89.1654 30.0284 89.4538 30.4821 90.0305 30.4821C90.5431 30.4821 91.1518 30.158 91.8566 29.5098C92.5615 28.8616 93.2503 28.0675 93.9231 27.1276C94.6279 26.1553 95.2687 25.1344 95.8454 24.0648C96.4541 22.9629 96.9187 21.9743 97.239 21.0993Z" fill="#C72373"/>
<path d="M135.39 3.25726C136.96 4.13234 138.402 5.18568 139.715 6.41728C141.061 7.61647 142.214 8.94531 143.175 10.4038C144.136 11.8623 144.873 13.3855 145.386 14.9737C145.931 16.5618 146.203 18.1499 146.203 19.738C146.203 21.5206 145.866 23.1735 145.194 24.6968C144.521 26.2201 143.576 27.5327 142.358 28.6347C141.141 29.7367 139.667 30.5955 137.937 31.2113C136.239 31.8271 134.349 32.135 132.266 32.135C131.049 32.135 129.911 32.0702 128.854 31.9406C127.797 31.7785 126.788 31.5841 125.827 31.3572C124.898 31.0979 123.984 30.8224 123.087 30.5307C122.222 30.2066 121.357 29.8987 120.492 29.607C119.275 30.4821 117.913 31.1303 116.407 31.5517C114.934 31.9406 113.284 32.135 111.458 32.135C110.432 32.135 109.695 32.0216 109.247 31.7947C108.83 31.5354 108.622 31.1951 108.622 30.7738C108.622 30.3525 108.766 29.8987 109.055 29.4126C109.375 28.894 109.808 28.424 110.352 28.0027C110.929 27.5814 111.586 27.241 112.323 26.9818C113.091 26.6901 113.941 26.5442 114.87 26.5442C116.119 26.5442 117.256 26.6577 118.282 26.8845C119.339 27.1114 120.38 27.4031 121.405 27.7596C122.527 26.4632 123.584 24.713 124.577 22.5091C125.57 20.3052 126.612 17.4855 127.701 14.05C128.342 12.0405 129.03 10.2579 129.767 8.70223C130.536 7.14652 131.417 5.80148 132.41 4.66712C131.129 4.01891 129.767 3.53275 128.326 3.20864C126.916 2.85213 125.442 2.67387 123.904 2.67387C122.495 2.67387 121.261 2.88454 120.204 3.30587C119.179 3.72721 118.314 4.29439 117.609 5.00743C116.904 5.72046 116.343 6.54693 115.927 7.48683C115.51 8.42674 115.222 9.41526 115.062 10.4524C114.998 10.5172 114.918 10.5334 114.822 10.501C114.725 10.4686 114.677 10.3876 114.677 10.2579C114.806 8.9291 115.158 7.6975 115.735 6.56313C116.311 5.39635 117.08 4.39163 118.041 3.54895C119.035 2.70628 120.204 2.04186 121.55 1.55571C122.895 1.06955 124.417 0.826467 126.115 0.826467C127.589 0.826467 129.014 1.00473 130.392 1.36124C131.77 1.68535 133.099 2.1553 134.381 2.7711C135.214 2.09048 136.111 1.52329 137.072 1.06955C138.065 0.615798 139.17 0.259283 140.388 0C140.484 0 140.532 0.0648212 140.532 0.194464C140.532 0.291694 140.484 0.37272 140.388 0.437542C138.498 0.95611 136.832 1.89601 135.39 3.25726ZM113.091 31.26C114.437 31.26 115.639 31.1303 116.696 30.871C117.785 30.5793 118.794 30.077 119.723 29.3639C118.666 29.0398 117.577 28.7643 116.455 28.5375C115.334 28.3106 114.101 28.1972 112.755 28.1972C112.018 28.1972 111.474 28.3268 111.121 28.5861C110.801 28.8454 110.641 29.2019 110.641 29.6556C110.641 30.1418 110.833 30.5307 111.217 30.8224C111.634 31.1141 112.259 31.26 113.091 31.26ZM134.621 30.5307C137.697 30.5307 139.955 29.7205 141.397 28.0999C142.839 26.447 143.56 24.1621 143.56 21.2451C143.56 19.7218 143.319 18.1985 142.839 16.6752C142.358 15.1519 141.685 13.6934 140.82 12.2998C139.955 10.9061 138.914 9.60972 137.697 8.41053C136.479 7.21134 135.118 6.1742 133.612 5.29912C132.17 7.27616 130.937 9.8528 129.911 13.029C128.79 16.6266 127.621 19.657 126.403 22.1202C125.218 24.551 123.856 26.5442 122.318 28.0999C123.119 28.3916 123.936 28.6833 124.769 28.975C125.634 29.2343 126.564 29.4936 127.557 29.7529C128.55 29.9797 129.623 30.1742 130.777 30.3363C131.93 30.4659 133.211 30.5307 134.621 30.5307Z" fill="#C72373"/>
<path d="M155.064 19.6894C156.185 19.6894 157.018 20.0297 157.563 20.7103C158.107 21.3909 158.38 22.185 158.38 23.0925C158.38 24.3565 158.123 25.5395 157.611 26.6415C157.13 27.711 156.521 28.6671 155.785 29.5098C155.08 30.3201 154.311 30.9683 153.478 31.4544C152.645 31.9082 151.892 32.135 151.219 32.135C150.13 32.135 149.297 31.8109 148.72 31.1627C148.176 30.4821 147.903 29.6232 147.903 28.5861C147.903 27.6462 148.095 26.6577 148.48 25.6205C148.896 24.5834 149.425 23.6273 150.066 22.7522C150.739 21.8771 151.508 21.1479 152.373 20.5645C153.238 19.9811 154.135 19.6894 155.064 19.6894ZM152.421 30.628C153.414 30.628 154.247 30.1094 154.92 29.0722C155.624 28.0027 155.977 26.5442 155.977 24.6968C155.977 23.7245 155.785 22.9142 155.4 22.266C155.016 21.6178 154.455 21.2937 153.718 21.2937C152.693 21.2937 151.86 21.7961 151.219 22.8008C150.578 23.8055 150.258 25.2802 150.258 27.2248C150.258 28.3592 150.45 29.2181 150.835 29.8015C151.251 30.3525 151.78 30.628 152.421 30.628Z" fill="#C72373"/>
<path d="M168.367 24.0648C168.174 24.1296 168.078 24.0486 168.078 23.8217C168.302 23.1411 168.254 22.5415 167.934 22.023C167.646 21.5044 167.101 21.2451 166.3 21.2451C165.275 21.2451 164.442 21.8933 163.801 23.1897C163.192 24.4862 162.888 26.1715 162.888 28.2458C162.888 29.7691 163.481 30.5307 164.666 30.5307C165.211 30.5307 165.804 30.3363 166.444 29.9473C167.117 29.526 167.726 28.9912 168.27 28.343C168.399 28.2782 168.511 28.2944 168.607 28.3916C168.703 28.4889 168.719 28.6023 168.655 28.7319C167.854 29.7691 166.957 30.5955 165.964 31.2113C164.971 31.8271 163.913 32.135 162.792 32.135C162.087 32.135 161.494 31.892 161.014 31.4058C160.533 30.8872 160.293 30.1742 160.293 29.2667C160.293 28.1323 160.517 26.998 160.966 25.8636C161.446 24.6968 162.055 23.6597 162.792 22.7522C163.529 21.8447 164.33 21.1155 165.195 20.5645C166.06 19.9811 166.909 19.6894 167.742 19.6894C168.479 19.6894 169.055 19.9001 169.472 20.3214C169.888 20.7427 170.097 21.2127 170.097 21.7313C170.097 21.9257 170.033 22.1364 169.904 22.3633C169.808 22.5901 169.664 22.817 169.472 23.0439C169.312 23.2708 169.119 23.4814 168.895 23.6759C168.703 23.8704 168.527 24 168.367 24.0648Z" fill="#C72373"/>
<path d="M181.223 22.1202C181.223 23.9676 178.804 25.2316 173.966 25.9122C173.934 26.2363 173.902 26.5604 173.87 26.8845C173.87 27.2086 173.87 27.549 173.87 27.9055C173.87 28.7481 174.062 29.3964 174.447 29.8501C174.831 30.3038 175.44 30.5307 176.273 30.5307C176.881 30.5307 177.506 30.3525 178.147 29.9959C178.788 29.6394 179.3 29.1857 179.685 28.6347C179.813 28.5699 179.909 28.6023 179.973 28.7319C180.037 28.8292 180.053 28.9426 180.021 29.0722C179.38 29.9149 178.563 30.6442 177.57 31.26C176.609 31.8433 175.568 32.135 174.447 32.135C173.325 32.135 172.508 31.8596 171.996 31.3086C171.515 30.7252 171.275 29.9149 171.275 28.8778C171.275 27.8731 171.483 26.8359 171.899 25.7664C172.316 24.6644 172.845 23.6597 173.485 22.7522C174.158 21.8447 174.911 21.1155 175.744 20.5645C176.609 19.9811 177.474 19.6894 178.339 19.6894C179.204 19.6894 179.893 19.9487 180.406 20.4672C180.95 20.9534 181.223 21.5044 181.223 22.1202ZM177.042 20.9534C176.305 20.9534 175.664 21.3099 175.119 22.023C174.607 22.7036 174.254 23.7731 174.062 25.2316C175.6 25.0695 176.737 24.7779 177.474 24.3565C178.211 23.9028 178.579 23.3518 178.579 22.7036C178.579 22.2174 178.435 21.8123 178.147 21.4882C177.859 21.1317 177.49 20.9534 177.042 20.9534Z" fill="#C72373"/>
<path d="M188.686 19.6894C189.391 19.6894 189.952 19.7866 190.368 19.9811C190.817 20.1756 191.041 20.4186 191.041 20.7103C191.041 21.0668 190.945 21.472 190.753 21.9257C190.592 22.3795 190.432 22.7522 190.272 23.0439C190.208 23.1087 190.128 23.1249 190.032 23.0925C189.936 23.0277 189.888 22.9305 189.888 22.8008C189.984 22.5739 190.032 22.2498 190.032 21.8285C190.032 21.3747 189.904 21.002 189.647 20.7103C189.423 20.4186 189.103 20.2728 188.686 20.2728C188.141 20.2728 187.693 20.451 187.34 20.8076C187.02 21.1317 186.86 21.6016 186.86 22.2174C186.86 22.736 186.988 23.2383 187.244 23.7245C187.533 24.1783 187.837 24.6482 188.157 25.1344C188.51 25.5881 188.83 26.0905 189.119 26.6415C189.407 27.16 189.551 27.7596 189.551 28.4402C189.551 29.607 189.087 30.5145 188.157 31.1627C187.228 31.8109 186.011 32.135 184.505 32.135C183.416 32.135 182.551 31.9568 181.91 31.6003C181.301 31.2438 180.997 30.8548 180.997 30.4335C180.997 30.3038 181.045 30.1256 181.141 29.8987C181.237 29.6718 181.365 29.4288 181.526 29.1695C181.686 28.9102 181.862 28.6509 182.054 28.3916C182.246 28.1323 182.455 27.9217 182.679 27.7596C182.775 27.6948 182.855 27.711 182.919 27.8082C183.015 27.9055 183.031 28.0027 182.967 28.0999C182.775 28.2944 182.631 28.5051 182.535 28.7319C182.439 28.9264 182.391 29.2019 182.391 29.5584C182.391 30.1418 182.583 30.628 182.967 31.0169C183.352 31.3734 183.848 31.5517 184.457 31.5517C185.29 31.5517 185.931 31.3248 186.379 30.871C186.86 30.3849 187.1 29.8015 187.1 29.1209C187.1 28.5051 186.956 27.9379 186.668 27.4193C186.411 26.8683 186.123 26.3498 185.803 25.8636C185.482 25.345 185.178 24.8265 184.89 24.3079C184.633 23.7893 184.505 23.2384 184.505 22.655C184.505 21.8123 184.858 21.1155 185.562 20.5645C186.267 19.9811 187.308 19.6894 188.686 19.6894Z" fill="#C72373"/>
<path d="M239.312 2.47941C239.44 2.57664 239.456 2.73869 239.36 2.96556C239.264 3.16003 239.103 3.37069 238.879 3.59757C238.687 3.79203 238.447 3.97029 238.158 4.13234C237.87 4.29439 237.614 4.37542 237.389 4.37542C236.62 4.3106 235.835 4.22957 235.035 4.13234C234.266 4.03511 233.497 3.92167 232.728 3.79203C232.055 3.9865 231.462 4.27819 230.95 4.66712C230.469 5.02363 230.021 5.50979 229.604 6.12559C229.22 6.74139 228.851 7.51924 228.499 8.45915C228.178 9.36664 227.842 10.4848 227.49 11.8136C227.265 12.5591 227.057 13.2883 226.865 14.0013C226.673 14.7144 226.448 15.395 226.192 16.0432H231.142C231.302 16.108 231.35 16.1891 231.286 16.2863C231.254 16.3511 231.11 16.4159 230.854 16.4808C230.021 16.5132 229.204 16.5456 228.403 16.578C227.602 16.578 226.801 16.5942 226 16.6266C224.077 21.9743 221.627 25.896 218.647 28.3916C215.7 30.8872 212.159 32.135 208.026 32.135C205.72 32.135 203.926 31.5841 202.644 30.4821C201.395 29.3801 200.77 27.8569 200.77 25.9122C200.77 24.7778 201.09 23.7245 201.731 22.7522C202.404 21.7799 203.349 21.0182 204.566 20.4672C204.694 20.4672 204.791 20.5321 204.855 20.6617C204.919 20.7589 204.919 20.8562 204.855 20.9534C204.278 21.4072 203.845 21.9095 203.557 22.4605C203.301 22.9791 203.173 23.7083 203.173 24.6482C203.173 25.4909 203.317 26.2687 203.605 26.9818C203.894 27.6624 204.342 28.2782 204.951 28.8292C205.559 29.3477 206.344 29.7529 207.306 30.0446C208.267 30.3363 209.42 30.4821 210.766 30.4821C212.303 30.4821 213.649 30.2876 214.802 29.8987C215.988 29.5098 217.061 28.813 218.022 27.8082C218.983 26.7711 219.881 25.3612 220.713 23.5787C221.546 21.7961 222.396 19.5111 223.261 16.7238C221.627 16.7887 220.041 16.8859 218.503 17.0155C216.965 17.1452 215.459 17.3234 213.985 17.5503C213.889 17.5179 213.905 17.4531 214.034 17.3558C214.162 17.2262 214.338 17.0966 214.562 16.9669C214.818 16.8373 215.091 16.7238 215.379 16.6266C215.667 16.497 215.892 16.4159 216.052 16.3835C218.455 16.2539 220.922 16.1566 223.453 16.0918C223.613 15.5733 223.773 15.0385 223.933 14.4875C224.094 13.9365 224.254 13.3693 224.414 12.786C225.119 10.1607 226.016 8.15125 227.105 6.7576C228.194 5.33153 229.684 4.27819 231.574 3.59757C229.844 3.33828 228.178 3.11141 226.576 2.91695C225.007 2.69007 223.501 2.57664 222.059 2.57664C219.656 2.57664 217.67 3.04659 216.1 3.98649C214.53 4.89399 213.377 6.4659 212.64 8.70223C212.544 8.79946 212.448 8.81566 212.352 8.75084C212.255 8.68602 212.207 8.57258 212.207 8.41053C212.912 6.10938 214.29 4.26198 216.34 2.86833C218.423 1.47468 220.986 0.777851 224.029 0.777851C225.215 0.777851 226.4 0.842673 227.586 0.972315C228.803 1.10196 230.037 1.26401 231.286 1.45847C232.536 1.62052 233.817 1.79878 235.131 1.99325C236.476 2.18771 237.87 2.34976 239.312 2.47941Z" fill="#C72373"/>
<path d="M236.982 17.5989C236.886 17.6961 236.774 17.6961 236.646 17.5989C236.55 17.5017 236.47 17.372 236.406 17.21C236.342 17.0155 236.31 16.8211 236.31 16.6266C236.31 16.3997 236.358 16.2053 236.454 16.0432C236.806 15.5895 237.319 15.0223 237.992 14.3417C238.696 13.6286 239.417 13.029 240.154 12.5429C240.218 12.5105 240.298 12.5429 240.394 12.6401C240.49 12.7049 240.523 12.7697 240.491 12.8346C239.818 13.4504 239.177 14.1958 238.568 15.0709C237.959 15.9136 237.431 16.7562 236.982 17.5989ZM231.84 23.0925C231.744 23.1573 231.664 23.1411 231.6 23.0439C231.536 22.9142 231.52 22.8008 231.552 22.7036C232.737 21.7313 234.387 20.7265 236.502 19.6894C236.758 19.6894 236.886 19.8352 236.886 20.1269C236.47 20.8724 236.053 21.6826 235.637 22.5577C235.252 23.4328 234.9 24.3079 234.579 25.183C234.291 26.0257 234.051 26.8521 233.859 27.6624C233.666 28.4402 233.57 29.0885 233.57 29.607C233.57 30.2552 233.795 30.5793 234.243 30.5793C234.595 30.5793 234.932 30.4335 235.252 30.1418C235.605 29.8177 236.005 29.4126 236.454 28.9264C236.518 28.8616 236.598 28.8778 236.694 28.975C236.79 29.0398 236.806 29.1533 236.742 29.3153C236.037 30.158 235.332 30.8386 234.628 31.3572C233.955 31.8758 233.298 32.135 232.657 32.135C231.536 32.135 230.975 31.6003 230.975 30.5307C230.975 29.9473 231.055 29.2667 231.215 28.4889C231.408 27.6786 231.648 26.8683 231.936 26.0581C232.257 25.2154 232.593 24.4051 232.946 23.6273C233.33 22.817 233.714 22.1202 234.099 21.5368C233.746 21.7313 233.346 21.9743 232.897 22.266C232.481 22.5577 232.129 22.8332 231.84 23.0925Z" fill="#C72373"/>
<path d="M252.409 28.7319C252.473 28.6671 252.554 28.6833 252.65 28.7806C252.746 28.8454 252.778 28.9426 252.746 29.0722C252.169 29.8825 251.496 30.5955 250.727 31.2113C249.991 31.8271 249.254 32.135 248.517 32.135C247.972 32.135 247.54 31.9568 247.219 31.6003C246.931 31.2438 246.787 30.7738 246.787 30.1904C246.787 29.056 246.979 27.8244 247.363 26.4956C247.78 25.1668 248.325 23.8217 248.997 22.4605C249.093 22.2336 249.142 21.9905 249.142 21.7313C249.142 21.4072 248.997 21.2451 248.709 21.2451C247.524 21.2451 246.21 22.0716 244.768 23.7245C243.327 25.345 241.997 27.9379 240.78 31.503C240.748 31.6003 240.635 31.6975 240.443 31.7947C240.283 31.8596 240.091 31.9244 239.867 31.9892C239.642 32.0216 239.418 32.054 239.194 32.0864C238.969 32.1188 238.793 32.135 238.665 32.135C238.505 32.135 238.377 32.1026 238.281 32.0378C238.217 31.973 238.217 31.8596 238.281 31.6975C238.825 30.3038 239.37 28.7806 239.915 27.1276C240.491 25.4423 240.988 23.7569 241.404 22.0716C241.5 21.7475 241.516 21.5206 241.452 21.3909C241.388 21.2289 241.276 21.1479 241.116 21.1479C240.764 21.1479 240.427 21.3099 240.107 21.634C239.786 21.9257 239.498 22.2498 239.242 22.6063C239.146 22.6712 239.05 22.655 238.953 22.5577C238.889 22.4605 238.873 22.3633 238.905 22.266C239.066 22.0392 239.274 21.7799 239.53 21.4882C239.818 21.1965 240.139 20.921 240.491 20.6617C240.844 20.37 241.212 20.1431 241.597 19.9811C241.981 19.7866 242.365 19.6894 242.75 19.6894C243.295 19.6894 243.647 19.8677 243.807 20.2242C243.999 20.5483 244.047 20.9534 243.951 21.4396C243.791 22.1526 243.615 22.8332 243.423 23.4814C243.263 24.0972 243.054 24.7941 242.798 25.5719C243.182 24.8589 243.647 24.1621 244.192 23.4814C244.768 22.7684 245.393 22.1364 246.066 21.5854C246.771 21.002 247.524 20.5483 248.325 20.2242C249.125 19.8677 249.975 19.6894 250.872 19.6894C251.256 19.6894 251.544 19.7866 251.737 19.9811C251.961 20.1756 252.073 20.4024 252.073 20.6617C252.073 21.1155 251.961 21.5206 251.737 21.8771C251.064 23.1087 250.487 24.3889 250.007 25.7178C249.558 27.0142 249.334 28.181 249.334 29.2181C249.334 30.0608 249.606 30.4821 250.151 30.4821C250.503 30.4821 250.856 30.3363 251.208 30.0446C251.56 29.7529 251.961 29.3153 252.409 28.7319Z" fill="#C72373"/>
<path d="M261.409 19.6894C262.53 19.6894 263.363 20.0297 263.908 20.7103C264.452 21.3909 264.725 22.185 264.725 23.0925C264.725 24.3565 264.468 25.5395 263.956 26.6415C263.475 27.711 262.867 28.6671 262.13 29.5098C261.425 30.3201 260.656 30.9683 259.823 31.4544C258.99 31.9082 258.237 32.135 257.564 32.135C256.475 32.135 255.642 31.8109 255.065 31.1627C254.521 30.4821 254.248 29.6232 254.248 28.5861C254.248 27.6462 254.441 26.6577 254.825 25.6205C255.242 24.5834 255.77 23.6273 256.411 22.7522C257.084 21.8771 257.853 21.1479 258.718 20.5645C259.583 19.9811 260.48 19.6894 261.409 19.6894ZM258.766 30.628C259.759 30.628 260.592 30.1094 261.265 29.0722C261.97 28.0027 262.322 26.5442 262.322 24.6968C262.322 23.7245 262.13 22.9142 261.745 22.266C261.361 21.6178 260.8 21.2937 260.063 21.2937C259.038 21.2937 258.205 21.7961 257.564 22.8008C256.924 23.8055 256.603 25.2802 256.603 27.2248C256.603 28.3592 256.795 29.2181 257.18 29.8015C257.596 30.3525 258.125 30.628 258.766 30.628Z" fill="#C72373"/>
<path d="M272.645 19.6894C273.35 19.6894 273.911 19.7866 274.327 19.9811C274.776 20.1756 275 20.4186 275 20.7103C275 21.0668 274.904 21.472 274.712 21.9257C274.551 22.3795 274.391 22.7522 274.231 23.0439C274.167 23.1087 274.087 23.1249 273.991 23.0925C273.895 23.0277 273.847 22.9305 273.847 22.8008C273.943 22.5739 273.991 22.2498 273.991 21.8285C273.991 21.3747 273.863 21.002 273.606 20.7103C273.382 20.4186 273.062 20.2728 272.645 20.2728C272.101 20.2728 271.652 20.451 271.3 20.8076C270.979 21.1317 270.819 21.6016 270.819 22.2174C270.819 22.736 270.947 23.2383 271.203 23.7245C271.492 24.1783 271.796 24.6482 272.117 25.1344C272.469 25.5881 272.789 26.0905 273.078 26.6415C273.366 27.16 273.51 27.7596 273.51 28.4402C273.51 29.607 273.046 30.5145 272.117 31.1627C271.187 31.8109 269.97 32.135 268.464 32.135C267.375 32.135 266.51 31.9568 265.869 31.6003C265.26 31.2438 264.956 30.8548 264.956 30.4335C264.956 30.3038 265.004 30.1256 265.1 29.8987C265.196 29.6718 265.325 29.4288 265.485 29.1695C265.645 28.9102 265.821 28.6509 266.013 28.3916C266.206 28.1323 266.414 27.9217 266.638 27.7596C266.734 27.6948 266.814 27.711 266.878 27.8082C266.974 27.9055 266.99 28.0027 266.926 28.0999C266.734 28.2944 266.59 28.5051 266.494 28.7319C266.398 28.9264 266.35 29.2019 266.35 29.5584C266.35 30.1418 266.542 30.628 266.926 31.0169C267.311 31.3734 267.807 31.5517 268.416 31.5517C269.249 31.5517 269.89 31.3248 270.338 30.871C270.819 30.3849 271.059 29.8015 271.059 29.1209C271.059 28.5051 270.915 27.9379 270.627 27.4193C270.37 26.8683 270.082 26.3498 269.762 25.8636C269.441 25.345 269.137 24.8265 268.849 24.3079C268.592 23.7893 268.464 23.2384 268.464 22.655C268.464 21.8123 268.817 21.1155 269.522 20.5645C270.226 19.9811 271.268 19.6894 272.645 19.6894Z" fill="#C72373"/>
</svg>
